<?xml version="1.0" standalone="no"?>
<!DOCTYPE svg PUBLIC "-//W3C//DTD SVG 1.1//EN" "http://www.w3.org/Graphics/SVG/1.1/DTD/svg11.dtd">
<svg xmlns="http://www.w3.org/2000/svg" xmlns:xlink="http://www.w3.org/1999/xlink" viewBox="0 0 392.11 392.11" version="1.1">
  <title>Ilios Sunburst</title>
  <path stroke="#c60" fill="#c60" d="M371.83,461.83c-77.62-89.13-98.6-113.11-30.25-93.76-62.12-34.35-30.23-36.41,87.67-44.87-117.91-8.47-149.8-10.52-87.67-44.87-68.34,19.35-47.37-4.63,30.26-93.76-89.12,77.62-113.11,98.6-93.76,30.25-34.35,62.12-36.41,30.23-44.87-87.68-8.47,117.91-10.53,149.8-44.87,87.68,19.35,68.34-4.64,47.37-93.76-30.26,77.62,89.13,98.59,113.11,30.25,93.76,62.12,34.35,30.23,36.41-87.68,44.87,117.91,8.47,149.8,10.52,87.68,44.87,68.34-19.35,47.37,4.63-30.25,93.76,89.12-77.62,113.11-98.6,93.76-30.25,34.35-62.12,36.41-30.23,44.87,87.68,8.47-117.91,10.52-149.8,44.87-87.68C258.71,363.23,282.7,384.21,371.83,461.83Z" transform="translate(-37.14 -127.14)"/>
</svg>
